<svg xmlns="http://www.w3.org/2000/svg" viewBox="0 0 24 24" role="img" aria-labelledby="title"><title>Instagram</title><path fill="currentColor" d="M7.8 2h8.4A5.8 5.8 0 0 1 22 7.8v8.4a5.8 5.8 0 0 1-5.8 5.8H7.8A5.8 5.8 0 0 1 2 16.2V7.8A5.8 5.8 0 0 1 7.8 2Zm0 2A3.8 3.8 0 0 0 4 7.8v8.4A3.8 3.8 0 0 0 7.8 20h8.4a3.8 3.8 0 0 0 3.8-3.8V7.8A3.8 3.8 0 0 0 16.2 4H7.8Zm4.2 3.2a4.8 4.8 0 1 1 0 9.6 4.8 4.8 0 0 1 0-9.6Zm0 2a2.8 2.8 0 1 0 0 5.6 2.8 2.8 0 0 0 0-5.6Zm5.05-2.35a1.1 1.1 0 1 1 0 2.2 1.1 1.1 0 0 1 0-2.2Z"/></svg>